<mxfile host="app.diagrams.net" agent="Mozilla/5.0 (X11; Linux x86_64) AppleWebKit/537.36 (KHTML, like Gecko) Chrome/133.0.0.0 Safari/537.36" version="26.1.1">
  <diagram name="ページ1" id="9WcdxIMzU3aVVUnfwOJT">
    <mxGraphModel dx="2835" dy="1148" grid="1" gridSize="10" guides="1" tooltips="1" connect="1" arrows="1" fold="1" page="1" pageScale="1" pageWidth="827" pageHeight="1169" math="0" shadow="0">
      <root>
        <mxCell id="0" />
        <mxCell id="1" parent="0" />
        <mxCell id="MJ6Qp3huJifzhzm-b9Pc-1" value="&lt;font style=&quot;font-size: 19px;&quot;&gt;&lt;b&gt;Button-Klick&lt;/b&gt;&lt;/font&gt;" style="rounded=0;whiteSpace=wrap;html=1;fillColor=#dae8fc;strokeColor=#6c8ebf;dashed=1;" vertex="1" parent="1">
          <mxGeometry x="180" y="280" width="220" height="40" as="geometry" />
        </mxCell>
        <mxCell id="MJ6Qp3huJifzhzm-b9Pc-2" value="&lt;font style=&quot;font-size: 19px;&quot;&gt;&lt;b&gt;Promise-Erfüllt&lt;/b&gt;&lt;/font&gt;" style="rounded=0;whiteSpace=wrap;html=1;fillColor=#dae8fc;strokeColor=#6c8ebf;" vertex="1" parent="1">
          <mxGeometry x="180" y="360" width="220" height="40" as="geometry" />
        </mxCell>
        <mxCell id="MJ6Qp3huJifzhzm-b9Pc-3" value="&lt;font style=&quot;font-size: 19px;&quot;&gt;&lt;b&gt;Timeout ausgelaufen&lt;/b&gt;&lt;/font&gt;" style="rounded=0;whiteSpace=wrap;html=1;fillColor=#dae8fc;strokeColor=#6c8ebf;" vertex="1" parent="1">
          <mxGeometry x="180" y="440" width="220" height="40" as="geometry" />
        </mxCell>
        <mxCell id="MJ6Qp3huJifzhzm-b9Pc-6" value="" style="swimlane;startSize=0;" vertex="1" parent="1">
          <mxGeometry x="140" y="250" width="290" height="340" as="geometry" />
        </mxCell>
        <mxCell id="MJ6Qp3huJifzhzm-b9Pc-10" value="&lt;font style=&quot;font-size: 19px;&quot;&gt;&lt;b&gt;Mausbewegung&lt;/b&gt;&lt;/font&gt;" style="rounded=0;whiteSpace=wrap;html=1;fillColor=#dae8fc;strokeColor=#6c8ebf;dashed=1;" vertex="1" parent="MJ6Qp3huJifzhzm-b9Pc-6">
          <mxGeometry x="40" y="266" width="220" height="40" as="geometry" />
        </mxCell>
        <mxCell id="MJ6Qp3huJifzhzm-b9Pc-7" value="&lt;font style=&quot;font-size: 27px;&quot;&gt;Warteschlange&lt;/font&gt;" style="text;html=1;align=center;verticalAlign=middle;whiteSpace=wrap;rounded=0;" vertex="1" parent="1">
          <mxGeometry x="187.5" y="190" width="205" height="30" as="geometry" />
        </mxCell>
        <mxCell id="MJ6Qp3huJifzhzm-b9Pc-8" value="" style="ellipse;whiteSpace=wrap;html=1;aspect=fixed;fillColor=#d5e8d4;strokeColor=#82b366;" vertex="1" parent="1">
          <mxGeometry x="630" y="340" width="60" height="60" as="geometry" />
        </mxCell>
        <mxCell id="MJ6Qp3huJifzhzm-b9Pc-9" value="&lt;b&gt;&lt;font style=&quot;font-size: 22px;&quot;&gt;Neues Ereignis&lt;/font&gt;&lt;/b&gt;" style="text;html=1;align=center;verticalAlign=middle;whiteSpace=wrap;rounded=0;" vertex="1" parent="1">
          <mxGeometry x="580" y="410" width="180" height="30" as="geometry" />
        </mxCell>
        <mxCell id="MJ6Qp3huJifzhzm-b9Pc-11" value="" style="curved=1;endArrow=classic;html=1;rounded=0;strokeWidth=3;" edge="1" parent="1" target="MJ6Qp3huJifzhzm-b9Pc-10">
          <mxGeometry width="50" height="50" relative="1" as="geometry">
            <mxPoint x="670" y="450" as="sourcePoint" />
            <mxPoint x="20" y="620" as="targetPoint" />
            <Array as="points">
              <mxPoint x="700" y="590" />
              <mxPoint x="460" y="680" />
            </Array>
          </mxGeometry>
        </mxCell>
        <mxCell id="MJ6Qp3huJifzhzm-b9Pc-12" value="&lt;b&gt;&lt;font style=&quot;font-size: 19px;&quot;&gt;JavaScript-Engine&lt;/font&gt;&lt;/b&gt;" style="shape=process;whiteSpace=wrap;html=1;backgroundOutline=1;fillColor=#fff2cc;strokeColor=#d6b656;" vertex="1" parent="1">
          <mxGeometry x="-410" y="340" width="170" height="160" as="geometry" />
        </mxCell>
        <mxCell id="MJ6Qp3huJifzhzm-b9Pc-13" value="" style="curved=1;endArrow=classic;html=1;rounded=0;strokeWidth=3;" edge="1" parent="1" source="MJ6Qp3huJifzhzm-b9Pc-1" target="MJ6Qp3huJifzhzm-b9Pc-14">
          <mxGeometry width="50" height="50" relative="1" as="geometry">
            <mxPoint x="-410" y="550" as="sourcePoint" />
            <mxPoint y="330" as="targetPoint" />
            <Array as="points">
              <mxPoint x="90" y="180" />
            </Array>
          </mxGeometry>
        </mxCell>
        <mxCell id="MJ6Qp3huJifzhzm-b9Pc-14" value="&lt;b&gt;&lt;font style=&quot;font-size: 19px;&quot;&gt;Nächsten Task abholen&lt;/font&gt;&lt;/b&gt;" style="rounded=0;whiteSpace=wrap;html=1;fillColor=#f5f5f5;fontColor=#333333;strokeColor=#666666;" vertex="1" parent="1">
          <mxGeometry x="-240" y="340" width="210" height="80" as="geometry" />
        </mxCell>
        <mxCell id="MJ6Qp3huJifzhzm-b9Pc-15" value="&lt;b&gt;&lt;font style=&quot;font-size: 19px;&quot;&gt;Task ausführen&lt;/font&gt;&lt;/b&gt;" style="rounded=0;whiteSpace=wrap;html=1;fillColor=#f5f5f5;fontColor=#333333;strokeColor=#666666;" vertex="1" parent="1">
          <mxGeometry x="-240" y="420" width="210" height="80" as="geometry" />
        </mxCell>
        <mxCell id="MJ6Qp3huJifzhzm-b9Pc-16" value="" style="curved=1;endArrow=classic;html=1;rounded=0;strokeWidth=3;" edge="1" parent="1" source="MJ6Qp3huJifzhzm-b9Pc-15" target="MJ6Qp3huJifzhzm-b9Pc-14">
          <mxGeometry width="50" height="50" relative="1" as="geometry">
            <mxPoint x="-500" y="640" as="sourcePoint" />
            <mxPoint x="-450" y="590" as="targetPoint" />
            <Array as="points">
              <mxPoint x="-370" y="750" />
              <mxPoint x="-620" y="420" />
              <mxPoint x="-370" y="70" />
            </Array>
          </mxGeometry>
        </mxCell>
        <mxCell id="MJ6Qp3huJifzhzm-b9Pc-17" value="&lt;font style=&quot;font-size: 27px;&quot;&gt;Event-Loop&lt;/font&gt;" style="text;html=1;align=center;verticalAlign=middle;whiteSpace=wrap;rounded=0;" vertex="1" parent="1">
          <mxGeometry x="-490" y="110" width="240" height="30" as="geometry" />
        </mxCell>
      </root>
    </mxGraphModel>
  </diagram>
</mxfile>
